<?xml version="1.0" encoding="UTF-8"?>
<svg width="19px" height="16px" viewBox="0 0 19 16" version="1.1" xmlns="http://www.w3.org/2000/svg" xmlns:xlink="http://www.w3.org/1999/xlink">
    <!-- Generator: sketchtool 63.1 (101010) - https://sketch.com -->
    <title>064B5A12-86D8-4EF2-9E72-5FB7C763E476</title>
    <desc>Created with sketchtool.</desc>
    <g id="Admin" stroke="none" stroke-width="1" fill="none" fill-rule="evenodd">
        <g id="Add-pump-master-Parameters" transform="translate(-247.000000, -92.000000)" fill="#5A5A5E" fill-rule="nonzero">
            <g id="Arrow---Left" transform="translate(256.500000, 100.000000) rotate(-270.000000) translate(-256.500000, -100.000000) translate(249.000000, 91.000000)">
                <path d="M7.50011071,0 C7.92046915,0 8.26786954,0.307804234 8.32285045,0.707159392 L8.33043029,0.818181818 L8.33,15.201 L13.5812929,10.0047416 C13.9048538,9.68453443 14.4305819,9.68341889 14.7555393,10.00225 C15.0509552,10.2920964 15.0787468,10.7465807 14.8382623,11.0673952 L14.758068,11.1593311 L8.08894109,17.7593311 L8.07145278,17.7755071 C8.05352352,17.7922663 8.03483573,17.8082452 8.01544542,17.8233887 L8.08894109,17.7593311 C8.05680963,17.7911295 8.02268703,17.8197798 7.98696755,17.8452819 C7.9645267,17.860699 7.94122721,17.8756595 7.91715943,17.8894619 C7.86360061,17.9206412 7.80755426,17.9448019 7.74992441,17.962625 C7.72961328,17.9686298 7.70886643,17.9742127 7.68781313,17.9790066 C7.67174473,17.9829055 7.65541039,17.9861109 7.63900911,17.9888296 C7.62123948,17.9915478 7.60345516,17.9939188 7.58550152,17.9957261 C7.56748776,17.9977737 7.54907097,17.9990299 7.53063625,17.9996844 C7.52041882,17.9998196 7.51028614,18 7.50011071,18 L7.47254229,17.9997554 C7.45209201,17.9990795 7.43166225,17.9976631 7.41129797,17.9955062 L7.50011071,18 C7.45269654,18 7.40621059,17.9960839 7.3609678,17.9885621 C7.3403568,17.9852014 7.31965521,17.9809442 7.29911112,17.9759031 C7.28278098,17.9718611 7.26675271,17.967416 7.25092864,17.9625168 C7.23212996,17.9567344 7.2131857,17.9501259 7.19445675,17.9428199 C7.17512323,17.9352332 7.15622695,17.9270283 7.13771504,17.9181656 C7.12354717,17.9114502 7.1089361,17.9039341 7.09451531,17.8959606 C7.06746158,17.8809206 7.04208012,17.8649993 7.01768278,17.8478087 C7.01386331,17.8451044 7.00965011,17.842074 7.00545965,17.8389996 C6.96839553,17.811712 6.93570444,17.7834282 6.90542725,17.7528152 L0.241980668,11.1593792 C-0.081607259,10.8391985 -0.0805187949,10.3211555 0.24441182,10.0022979 C0.539803288,9.71242729 1.00114313,9.68696182 1.32569825,9.92528387 L1.41865851,10.0046935 L6.669,15.2 L6.66979113,0.818181818 C6.66979113,0.366312477 7.04153787,0 7.50011071,0 Z"></path>
            </g>
        </g>
    </g>
</svg>