<?xml version="1.0" encoding="UTF-8"?>
<svg width="15px" height="15px" viewBox="0 0 15 15" version="1.1" xmlns="http://www.w3.org/2000/svg" xmlns:xlink="http://www.w3.org/1999/xlink">
    <!-- Generator: sketchtool 63.1 (101010) - https://sketch.com -->
    <title>610C31F0-2997-4577-8C00-07025D68B8D1</title>
    <desc>Created with sketchtool.</desc>
    <g id="Theme-2" stroke="none" stroke-width="1" fill="none" fill-rule="evenodd">
        <g id="Switch-Off-confirmation" transform="translate(-327.000000, -242.000000)" fill="#516CC1" stroke="#516CC1" stroke-width="0.2">
            <path d="M334.5,240 C335.042763,240 335.482759,240.439996 335.482759,240.982759 L335.482,248.517 L343.017241,248.517241 C343.560004,248.517241 344,248.957237 344,249.5 C344,250.042763 343.560004,250.482759 343.017241,250.482759 L335.482,250.482 L335.482759,258.017241 C335.482759,258.560004 335.042763,259 334.5,259 C333.957237,259 333.517241,258.560004 333.517241,258.017241 L333.517,250.482 L325.982759,250.482759 C325.439996,250.482759 325,250.042763 325,249.5 C325,248.957237 325.439996,248.517241 325.982759,248.517241 L333.517,248.517 L333.517241,240.982759 C333.517241,240.439996 333.957237,240 334.5,240 Z" id="Combined-Shape-Copy-2" transform="translate(334.500000, 249.500000) rotate(-315.000000) translate(-334.500000, -249.500000) "></path>
        </g>
    </g>
</svg>